# xmcd
#
# Track frame offsets: 
#        150
#        43044
#        93271
#        120600
#        135064
#        158581
#        196244
#        216994
#        239674
#        283860
#
# Disc length: 4229 seconds
#
# Revision: 1
# Processed by: cddbd v1.5.2PL0 Copyright (c) Steve Scherf et al.
# Submitted via: ExactAudioCopy v1.0b1
#
DISCID=8810830a
DTITLE=Dave Brubeck with Paul Desmond - At Newport 1956 and 1959
DYEAR=1956
DGENRE=Jazz
TTITLE0=In Your Own Sweet Way
TTITLE1=Two Part Contention
TTITLE2=Take the "A" Train
TTITLE3=I'm in a Dancing Mood
TTITLE4=Gone with the Wind
TTITLE5=Lonesome Road
TTITLE6=Three to Get Ready
TTITLE7=Blue Rondo a La Turk [Incomplete]
TTITLE8=Out of Nowhere
TTITLE9=These Foolish Things [Incomplete]
EXTD=YEAR: 1956
EXTT0=
EXTT1=
EXTT2=
EXTT3=
EXTT4=
EXTT5=
EXTT6=
EXTT7=
EXTT8=
EXTT9=
PLAYORDER=
